<?xml version="1.0" encoding="utf-8"?>
<!-- Generator: Adobe Illustrator 24.1.2, SVG Export Plug-In . SVG Version: 6.00 Build 0)  -->
<svg version="1.1" id="Layer_1" xmlns="http://www.w3.org/2000/svg" xmlns:xlink="http://www.w3.org/1999/xlink" x="0px" y="0px"
	 viewBox="0 0 5000 2916" style="enable-background:new 0 0 5000 2916;" xml:space="preserve">
<style type="text/css">
	.st0{display:none;fill-rule:evenodd;clip-rule:evenodd;}
</style>
<g>
	<rect y="0" class="st0" width="5000" height="2916"/>
	<path d="M433.9,2178.1c-4.6-2-9.3-4-13.9-6c5.2,3.1,10.3,6.3,15.5,9.3c5.5,2.8,11,5.7,16.6,8.5C446,2186,439.9,2182.1,433.9,2178.1
		 M1876.3,1211.6c2.1-10,4-20.4,6-30.5c0.8-11.5,1.4-23.6,2.1-35.5c-1.6,11.9-3.2,24-4.9,35.6
		C1878.5,1191.3,1877.5,1201.6,1876.3,1211.6z M1869.1,1245.5c0.7-3.3,1.5-6.5,2.3-9.8c0.5-3.9,0.8-8,1.3-11.9
		C1871.5,1231,1870.3,1238.3,1869.1,1245.5z M365.7,2142c-5.5-2.2-11-4.5-16.5-6.7c6.5,3.7,13.1,7.2,19.6,10.8c4.3,2,8.6,4,12.9,6
		C376.4,2148.8,371.1,2145.3,365.7,2142z M398.3,2154.3c-7-2.6-14-5.2-20.9-7.9c8.5,5.3,17.1,10.5,25.7,15.6
		c6.1,2.8,12.2,5.4,18.3,8C413.7,2164.9,406,2159.5,398.3,2154.3z M1867.3,1284.9c3.3-11,6.3-22.6,9.4-33.9
		c1.5-17.5,3.2-34.5,4.6-52.4c-2.5,12.5-4.9,25.3-7.6,37.4C1871.7,1252.7,1869.4,1268.6,1867.3,1284.9z M1855.6,1322.1
		c2.5-7.9,5-15.6,7.4-23.6c1.8-13.2,3.7-26.3,5.5-39.7c-1.7,7.5-3.4,14.9-5.2,22.3C1860.9,1295.1,1858.2,1308.4,1855.6,1322.1z
		 M1847.3,1348.4c0.6-2,1.3-4,1.9-6l0.8-4C1849.1,1341.8,1848.1,1345,1847.3,1348.4z M263.3,2095.8c-0.9-0.3-1.9-0.7-2.8-1.1
		c2.1,0.9,4.1,1.9,6.2,2.8C265.6,2096.9,264.4,2096.4,263.3,2095.8z M295.9,2107.4c-5.2-1.8-10.4-3.6-15.5-5.4
		c6,3.2,12,6.4,18.1,9.5c5.9,2.5,11.7,5.2,17.7,7.7C309.4,2115.2,302.6,2111.4,295.9,2107.4z M328.9,2118.7
		c-6.9-2.3-13.7-4.6-20.6-6.9c8.2,4.8,16.3,9.6,24.5,14.2c7.1,2.9,14.3,5.9,21.4,8.8C345.8,2129.4,337.3,2124.1,328.9,2118.7z
		 M361.7,2129.2c-7.8-2.5-15.6-5-23.4-7.5c9.5,6.1,19.1,12.1,28.7,18.1c7.5,2.9,15.1,5.7,22.6,8.5
		C380.3,2142,371,2135.7,361.7,2129.2z M1858.6,1347.7c4.2-10.3,8.2-20.9,12.3-31.4c1.7-17,3.2-34.8,4.6-52.4
		c-3.4,11.8-6.7,23.5-10.2,34.9C1863.2,1315.3,1861,1331.8,1858.6,1347.7z M1843.5,1383.4c3.8-9.1,7.7-18,11.5-27.3
		c2.2-14.1,4.1-29,6-43.7c-3.2,10.3-6.4,20.4-9.6,30.5C1848.9,1356.5,1846.3,1370.2,1843.5,1383.4z M1828.3,1419.6
		c3.7-8.3,7.2-17,10.8-25.5c2.1-10,4.1-20.5,6.1-30.9c-3,9-5.9,18-9,26.9C1833.5,1399.9,1831,1410,1828.3,1419.6z M1817.2,1443.4
		c1.7-3.6,3.4-7.1,5-10.7c1.4-4.8,2.7-9.8,4.1-14.8C1823.2,1426.4,1820.2,1435,1817.2,1443.4z M195.5,2066.5
		c-1.3-0.4-2.6-0.8-3.8-1.2c2.6,1.1,5.2,2.1,7.8,3.1C198.1,2067.8,196.8,2067.1,195.5,2066.5z M228.6,2076.8
		c-6.1-1.9-12.2-3.8-18.3-5.7c7.1,3.5,14.4,6.8,21.6,10.2c5.1,2,10.3,3.9,15.5,5.9C241,2083.7,234.8,2080.2,228.6,2076.8z
		 M260.7,2086c-7.2-2-14.4-4.1-21.5-6.2c8.5,4.7,17,9.3,25.5,13.9c7,2.6,14,5.1,21,7.5C277.3,2096.2,269,2091.1,260.7,2086z
		 M292.9,2094.8c-7.8-2-15.6-4.1-23.4-6.3c9.2,5.6,18.4,11.2,27.6,16.7c8.1,2.8,16.1,5.7,24.2,8.4
		C311.9,2107.5,302.4,2101.2,292.9,2094.8z M325.2,2103.2c-8.3-2.1-16.6-4.3-24.8-6.4c9.9,6.6,19.8,13.3,29.8,19.8
		c8.3,2.7,16.7,5.4,25.1,8.1C345.2,2117.5,335.2,2110.4,325.2,2103.2z M1848.6,1409.2c5-9,9.9-18.1,14.8-27.4
		c2.2-18.9,4.6-37.5,6.7-56.9c-4.2,10.7-8.5,21.3-12.7,31.8C1854.6,1374.6,1851.6,1391.7,1848.6,1409.2z M1830.6,1441.1
		c4.9-8.5,9.7-17,14.5-25.7c2.9-16.7,5.8-32.9,8.6-50c-4.1,9.9-8.2,19.6-12.4,29.3C1837.9,1410.5,1834.2,1425.6,1830.6,1441.1z
		 M1812.4,1472.7c4.7-7.9,9.4-16.1,14.1-24.2c3.2-13.8,6.5-27.4,9.6-41.3c-3.9,8.8-7.7,17.7-11.6,26.3
		C1820.5,1446.8,1816.4,1459.6,1812.4,1472.7z M1795.4,1500.3c4-6.5,8-12.9,12-19.5c3.3-10.6,6.5-21.2,9.8-31.8
		c-2.9,6.3-5.8,12.5-8.7,18.7C1804.2,1478.8,1799.7,1489.3,1795.4,1500.3z M1781.1,1523.4c2.3-3.7,4.6-7.6,7-11.3
		c1.3-3.1,2.5-6.3,3.8-9.5C1788.4,1509.8,1784.7,1516.4,1781.1,1523.4z M127.4,2040.6c-1.9-0.5-3.8-1-5.6-1.5
		c3.9,1.4,7.7,2.8,11.6,4.1C131.4,2042.4,129.4,2041.5,127.4,2040.6z M160.1,2048.8c-6-1.4-12-2.9-17.9-4.3c6.9,3,13.9,6,20.8,8.9
		c6.1,2,12.1,4.1,18.2,6.1C174.2,2055.9,167.1,2052.4,160.1,2048.8z M192.7,2056.5c-7.6-1.7-15.2-3.6-22.8-5.4
		c8.8,4.5,17.8,8.8,26.7,13.2c7.2,2.3,14.5,4.5,21.7,6.8C209.7,2066.3,201.2,2061.4,192.7,2056.5z M224.6,2063.5
		c-8.1-1.7-16.2-3.5-24.2-5.3c9.7,5.6,19.6,11,29.4,16.4c7.7,2.3,15.5,4.5,23.2,6.7C243.5,2075.4,234,2069.5,224.6,2063.5z
		 M256.3,2069.9c-8.3-1.6-16.6-3.2-24.8-4.9c10.1,6.4,20.3,12.6,30.5,18.9c8.3,2.3,16.5,4.6,24.9,6.9
		C276.6,2083.9,266.4,2076.9,256.3,2069.9z M287.9,2075.9c-8.6-1.6-17.1-3.2-25.6-4.8c10.6,7.3,21.2,14.5,31.9,21.6
		c8.5,2.2,17,4.5,25.6,6.7C309.1,2091.6,298.5,2083.7,287.9,2075.9z M1838.7,1466.9c5.8-7.7,11.6-15.3,17.3-23.2
		c2.4-17.8,4.5-36.7,6.6-55.2c-5,9.4-10.1,18.4-15.2,27.6C1844.6,1433.2,1841.8,1450.4,1838.7,1466.9z M1818.4,1493.6
		c5.8-7.4,11.5-15,17.2-22.6c3-15.7,5.6-32.4,8.4-48.8c-5.1,9.1-10.1,18.1-15.2,27C1825.3,1464.2,1822,1479.3,1818.4,1493.6z
		 M1797.9,1519.7c5.6-7,11.3-14.2,16.9-21.4c3.4-13.4,6.5-27.7,9.8-41.7c-4.9,8.5-9.9,16.8-14.9,25.1
		C1805.8,1494.5,1802,1507.4,1797.9,1519.7z M1777.8,1544.2c5.3-6.4,10.6-12.8,15.9-19.3c3.8-11.3,7.3-23.3,10.9-35.1
		c-4.8,7.9-9.6,15.6-14.4,23.3C1786.2,1523.6,1782.1,1534.1,1777.8,1544.2z M1758,1568.1c4.8-5.6,9.5-11.5,14.3-17.2
		c3.6-8.5,7.2-17.2,10.7-26c-4.3,6.7-8.6,13.2-12.9,19.8C1766,1552.6,1762.1,1560.6,1758,1568.1z M1742.9,1585.2
		c2.6-2.9,5.1-5.7,7.7-8.7c2.6-4.8,5.3-9.5,7.9-14.4C1753.3,1569.8,1748.1,1577.6,1742.9,1585.2z M61.4,2019.3
		c-2.8-0.5-5.5-1.1-8.2-1.6c5.5,1.6,11.1,3.2,16.6,4.8C67.1,2021.4,64.2,2020.4,61.4,2019.3z M93.1,2025c-6.2-1.1-12.5-2.2-18.6-3.4
		c7,2.7,14,5.4,21.1,8c6.4,1.7,12.8,3.5,19.2,5.2C107.5,2031.6,100.2,2028.3,93.1,2025z M124.7,2030.4c-7.4-1.2-14.8-2.4-22-3.6
		c8.5,3.9,17.1,7.8,25.7,11.6c7.7,2,15.3,4,23,5.9C142.5,2039.7,133.6,2035.1,124.7,2030.4z M156.3,2035.4c-8.1-1.2-16-2.5-24-3.7
		c9.5,5,19.1,10,28.8,15c8.2,2,16.4,4,24.6,5.9C175.9,2046.8,166.1,2041.2,156.3,2035.4z M187.9,2040c-8.4-1.2-16.8-2.4-25.1-3.6
		c10.2,6.1,20.6,12,30.9,18c8.3,1.9,16.7,3.7,25.1,5.5C208.5,2053.2,198.1,2046.7,187.9,2040z M219.1,2043.9
		c-8.6-1-17.1-2.1-25.5-3.2c10.7,6.9,21.4,13.8,32.2,20.6c8.5,1.8,17.1,3.5,25.7,5.2C240.6,2059,229.8,2051.6,219.1,2043.9z
		 M250.2,2047.6c-8.7-1-17.4-1.9-26-3c11,7.8,22.2,15.5,33.3,23.1c8.7,1.7,17.4,3.4,26.2,5C272.5,2064.4,261.3,2056,250.2,2047.6z
		 M1827.2,1523.8c6.5-6.3,13.1-12.3,19.6-18.7c2.9-18.8,6-37.1,8.7-56.5c-5.8,8-11.7,15.5-17.6,23.3
		C1834.5,1489.7,1830.7,1506.5,1827.2,1523.8z M1804.4,1545.4c6.6-6.1,13.1-12.4,19.6-18.7c3.5-16.8,7.2-33.2,10.5-50.5
		c-5.8,7.7-11.7,15.5-17.6,23.1C1813,1515.1,1808.6,1530,1804.4,1545.4z M1781.7,1566.2c6.5-5.8,12.9-11.6,19.3-17.6
		c4.1-14.7,8.2-29.2,12.1-44.2c-5.7,7.3-11.5,14.4-17.3,21.5C1791.2,1539.7,1786.4,1552.8,1781.7,1566.2z M1759,1586.5
		c6.3-5.6,12.7-11.3,19-17c4.5-12.6,9-25.2,13.4-38.1c-5.7,7-11.3,13.9-17,20.7C1769.3,1563.7,1764.1,1575,1759,1586.5z
		 M1736.3,1606.1c6.1-5.2,12.1-10.4,18.2-15.8c4.7-10.4,9.4-20.7,14-31.2c-5.3,6.3-10.7,12.5-16,18.6
		C1747.2,1587.3,1741.8,1596.7,1736.3,1606.1z M1714.9,1624c5.4-4.5,10.8-8.9,16.1-13.5c4.6-7.9,9.2-16,13.7-24
		c-4.6,5.2-9.2,10.4-13.8,15.5C1725.7,1609.5,1720.3,1616.7,1714.9,1624z M1696.6,1639.3c3.6-2.9,7.1-6,10.7-8.9
		c2.4-3.2,4.7-6.5,7.1-9.7C1708.5,1627.1,1702.5,1633.1,1696.6,1639.3z M27.4,2005.8c-6.7-0.7-13.2-1.4-19.8-2.1
		c7.5,2.4,15,4.7,22.6,7c6.2,1.3,12.5,2.5,18.8,3.7C41.6,2011.6,34.5,2008.7,27.4,2005.8z M58.4,2008.7c-7.6-0.7-15.2-1.4-22.8-2.1
		c8.8,3.5,17.7,7,26.6,10.5c7.4,1.4,14.9,2.7,22.3,4.1C75.8,2017,67.1,2012.8,58.4,2008.7z M89.4,2011.2c-8.1-0.6-16.2-1.2-24.1-1.9
		c9.5,4.5,19,9.1,28.7,13.5c8.1,1.4,16.2,2.8,24.4,4.2C108.6,2021.8,99,2016.5,89.4,2011.2z M120.3,2013.5c-8.4-0.6-16.7-1.2-25-1.8
		c10.1,5.5,20.2,11.1,30.4,16.5c8.5,1.4,17,2.8,25.5,4.1C140.8,2026.1,130.5,2019.8,120.3,2013.5z M151.1,2015.5
		c-8.6-0.5-17.1-1.1-25.6-1.6c10.6,6.5,21.1,13,31.8,19.3c8.6,1.3,17.3,2.5,26,3.8C172.5,2029.8,161.8,2022.7,151.1,2015.5z
		 M181.7,2017c-8.7-0.4-17.3-0.9-25.8-1.3c11,7.4,22,14.8,33.1,22c8.6,1.2,17.4,2.3,26.1,3.3C203.9,2033.1,192.8,2025.1,181.7,2017z
		 M212.2,2018.3c-8.7-0.3-17.4-0.6-25.9-1c11.3,8.2,22.5,16.4,33.9,24.5c8.8,1.1,17.6,2.1,26.4,3.1
		C235.1,2036,223.6,2027.2,212.2,2018.3z M1815.9,1577.6c7.3-4.8,14.5-9.4,21.8-14.3c3.1-17.5,5.7-36.2,8.5-54.4
		c-6.6,6.5-13.2,12.5-19.8,18.9C1822.9,1544.5,1819.6,1561.6,1815.9,1577.6z M1791.1,1594c7.3-4.7,14.5-9.5,21.8-14.3
		c3.6-15.7,6.9-32.5,10.3-48.9c-6.7,6.4-13.3,12.8-20,19C1799.2,1564.6,1795.3,1579.7,1791.1,1594z M1766.3,1609.6
		c7.2-4.5,14.4-8.9,21.5-13.5c4.2-13.9,8-28.6,12-43.1c-6.6,6.1-13.2,11.9-19.8,17.8C1775.5,1583.8,1771,1597.1,1766.3,1609.6z
		 M1741.5,1625.1c7.1-4.4,14.2-8.8,21.4-13.3c4.6-12.2,9.1-25,13.5-37.7c-6.6,5.9-13.2,11.9-19.8,17.6
		C1751.6,1603,1746.6,1614.3,1741.5,1625.1z M1716.8,1640.1c6.9-4.1,13.8-8.3,20.7-12.5c5-10.4,9.8-21.2,14.7-31.9
		c-6.4,5.6-12.8,10.9-19.2,16.4C1727.6,1621.5,1722.3,1631,1716.8,1640.1z M1692.5,1654.4c6.6-3.8,13.1-7.7,19.7-11.6
		c5.2-8.6,10.3-17.4,15.5-26.3c-6.2,5.2-12.4,10.4-18.6,15.5C1703.6,1639.6,1698.1,1647.2,1692.5,1654.4z M1669.2,1668
		c5.8-3.3,11.7-6.8,17.5-10.2c4.9-6.4,9.8-12.9,14.7-19.5c-5.5,4.5-11.1,8.9-16.6,13.3C1679.6,1657.2,1674.4,1662.7,1669.2,1668z
		 M1650.8,1678.3c3.4-1.9,6.9-3.8,10.3-5.8c3.6-3.6,7.2-7,10.7-10.7C1664.8,1667.4,1657.8,1673,1650.8,1678.3z M53.5,1991.1
		c-8.4,0.1-16.8,0.2-25,0.3c10.1,5,20.4,10,30.7,15c8.3,0.7,16.7,1.4,25.2,2.1C74,2002.7,63.7,1996.9,53.5,1991.1z M83.7,1990.6
		c-8.6,0.2-17.1,0.3-25.5,0.4c10.6,6,21.2,12,32,17.9c8.5,0.7,17.1,1.3,25.7,1.9C105.1,2004.2,94.4,1997.4,83.7,1990.6z
		 M113.9,1989.9c-8.7,0.2-17.3,0.4-25.8,0.6c11,6.9,22,13.8,33.1,20.7c8.7,0.6,17.3,1.2,26.1,1.7
		C136.1,2005.3,125,1997.6,113.9,1989.9z M144,1989.1c-8.8,0.3-17.4,0.5-26,0.7c11.3,7.8,22.6,15.6,34.1,23.3
		c8.6,0.5,17.4,0.9,26.1,1.4C166.7,2006.1,155.4,1997.6,144,1989.1z M174,1988c-8.7,0.4-17.5,0.7-26.1,1
		c11.5,8.6,23.1,17.3,34.8,25.8c8.7,0.4,17.5,0.8,26.3,1.1C197.2,2006.6,185.6,1997.3,174,1988z M1802.7,1630.5
		c8-3.3,15.9-6.6,23.9-9.9c3.5-17.9,7.1-35.5,10.4-54c-7.3,4.9-14.6,9.6-22,14.5C1811.1,1598,1806.8,1614,1802.7,1630.5z
		 M1775.9,1641.6c8-3.2,16-6.6,23.9-9.9c4.1-16.1,8.3-32,12.2-48.6c-7.4,4.9-14.7,9.8-22.1,14.5
		C1785.4,1612.6,1780.6,1626.9,1775.9,1641.6z M1749.2,1652.2c7.9-3.2,15.8-6.2,23.7-9.5c4.6-14.3,9.3-28.4,13.7-43.1
		c-7.3,4.7-14.6,9.1-21.9,13.7C1759.7,1626.6,1754.4,1639.3,1749.2,1652.2z M1722.4,1662.9c7.9-3.1,15.8-6.3,23.6-9.4
		c5.1-12.6,10.3-25,15.3-38c-7.3,4.6-14.6,9.2-21.9,13.7C1733.8,1640.7,1728.1,1651.7,1722.4,1662.9z M1695.8,1673.2
		c7.7-3,15.5-5.9,23.2-9c5.5-10.8,11-21.6,16.4-32.6c-7.2,4.4-14.3,8.6-21.5,12.8C1708,1654.2,1701.9,1663.7,1695.8,1673.2z
		 M1669.3,1683.4c7.6-2.9,15.2-5.8,22.8-8.7c5.8-9.1,11.7-18.2,17.4-27.5c-7,4.2-14.1,8.4-21.1,12.5
		C1682,1667.6,1675.6,1675.5,1669.3,1683.4z M1643.2,1693.2c7.2-2.7,14.4-5.4,21.7-8.1c5.9-7.3,11.8-14.6,17.7-22
		c-6.6,3.8-13.3,7.6-19.9,11.4C1656.1,1680.7,1649.7,1686.9,1643.2,1693.2z M1618.4,1702.3c6.4-2.3,12.8-4.7,19.3-7.1
		c5.6-5.4,11.2-10.8,16.8-16.3c-5.9,3.3-11.7,6.6-17.6,9.8C1630.7,1693.3,1624.6,1697.8,1618.4,1702.3z M1598.3,1709.6
		c4-1.4,8.1-3,12.1-4.4c3.2-2.3,6.4-4.7,9.6-7C1612.8,1702.1,1605.5,1705.8,1598.3,1709.6z M46.8,1966.8c-8.6,1-17.2,1.9-25.6,2.9
		c10.9,6.4,21.9,12.7,33,19.1c8.6-0.1,17.2-0.3,25.9-0.4C68.9,1981.2,57.8,1974,46.8,1966.8z M76.3,1963.5c-8.7,1-17.3,2-25.8,2.9
		c11.2,7.3,22.6,14.6,34,21.8c8.7-0.2,17.4-0.3,26.2-0.6C99.1,1979.6,87.6,1971.6,76.3,1963.5z M105.8,1960.1c-8.7,1-17.3,2-26,3
		c11.5,8.2,23.2,16.4,34.9,24.5c8.7-0.2,17.4-0.5,26.3-0.7C129.2,1977.9,117.4,1969,105.8,1960.1z M135.3,1956.6
		c-8.8,1-17.4,2.1-26,3.1c11.8,9.1,23.7,18.1,35.7,27.1c8.7-0.3,17.4-0.6,26.3-1C159.1,1976.1,147.2,1966.3,135.3,1956.6z
		 M1789.7,1681c8.6-1.8,17.2-3.6,25.9-5.5c3.7-16.9,7.1-34.6,10.5-52.2c-8,3.4-16.1,6.7-24.1,10
		C1797.9,1649.4,1794,1665.6,1789.7,1681z M1761.1,1687c8.6-1.8,17.2-3.6,25.8-5.4c4.2-15.2,8.2-31.2,12.2-47.1
		c-8,3.3-16.1,6.8-24.2,10C1770.4,1658.8,1765.9,1673.3,1761.1,1687z M1732.6,1692.9c8.6-1.8,17.1-3.5,25.7-5.3
		c4.7-13.6,9.2-27.8,13.8-41.9c-8,3.3-16,6.4-24,9.6C1742.9,1667.9,1737.8,1680.8,1732.6,1692.9z M1704.1,1698.8
		c8.5-1.7,17-3.5,25.5-5.3c5.2-12,10.2-24.6,15.3-37c-8,3.2-16,6.4-24,9.6C1715.3,1677.1,1709.7,1688.2,1704.1,1698.8z
		 M1675.6,1704.7c8.4-1.7,16.8-3.4,25.2-5.2c5.6-10.4,11.1-21.3,16.6-32.1c-7.9,3.1-15.8,6.1-23.8,9.1
		C1687.7,1686,1681.7,1695.6,1675.6,1704.7z M1647.3,1710.4c8.3-1.7,16.6-3.4,24.8-5.1c6-8.9,11.9-18.1,17.7-27.3
		c-7.9,3-15.7,6.1-23.6,9C1660,1694.9,1653.7,1702.8,1647.3,1710.4z M1619.4,1716.1c8-1.6,16.1-3.2,24.1-4.9
		c6.2-7.3,12.3-14.9,18.5-22.5c-7.7,2.9-15.3,5.7-22.9,8.5C1632.5,1703.6,1625.9,1710,1619.4,1716.1z M1591.9,1721.6
		c7.6-1.5,15.2-3,22.8-4.6c6.3-5.8,12.5-11.8,18.8-17.7c-7.3,2.7-14.7,5.4-22,8.1C1605,1712.1,1598.5,1716.9,1591.9,1721.6z
		 M1565.9,1726.8c6.7-1.3,13.4-2.7,20.1-4c5.8-4.1,11.7-8.3,17.5-12.5c-6.6,2.4-13.1,4.7-19.6,7
		C1577.9,1720.5,1571.9,1723.7,1565.9,1726.8z M1545.4,1730.8l11.9-2.3c3.8-2,7.7-3.9,11.5-5.9
		C1561,1725.3,1553.2,1728.1,1545.4,1730.8z M38.2,1936c-8.6,1.8-17.2,3.6-25.6,5.4c11.5,7.7,23.1,15.3,34.8,23c8.6-1,17.3-2,26-3
		C61.6,1953,49.8,1944.5,38.2,1936z M67.2,1930c-8.7,1.8-17.2,3.6-25.8,5.3c11.7,8.6,23.7,17.1,35.6,25.7c8.7-1,17.3-2,26.1-3
		C91.1,1948.7,79,1939.4,67.2,1930z M96.1,1924.1c-8.7,1.8-17.3,3.5-25.9,5.3c12,9.4,24.2,18.8,36.3,28.2c8.6-1,17.4-2,26.2-3.1
		C120.5,1944.4,108.2,1934.3,96.1,1924.1z M1775.2,1729.9c9.2-0.3,18.5-0.7,27.8-1c4.1-16.7,8.2-33.4,12-50.8
		c-8.7,1.8-17.4,3.7-26,5.5C1784.5,1699.4,1779.8,1714.6,1775.2,1729.9z M1744.8,1731.1c9.2-0.4,18.4-0.7,27.7-1.1
		c4.6-15.1,9.2-30.2,13.6-45.9c-8.7,1.8-17.4,3.7-26,5.5C1755.2,1703.8,1750,1717.4,1744.8,1731.1z M1714.6,1732.4
		c9.2-0.4,18.4-0.8,27.6-1.2c5.1-13.5,10.2-27,15.1-41c-8.7,1.8-17.3,3.6-25.9,5.4C1725.9,1708.2,1720.2,1720.2,1714.6,1732.4z
		 M1684.4,1733.7c9.1-0.4,18.3-0.8,27.4-1.2c5.6-12,11.1-23.9,16.6-36.3c-8.6,1.8-17.3,3.6-25.9,5.4
		C1696.6,1712.5,1690.5,1723,1684.4,1733.7z M1654.3,1735.1c9.1-0.4,18.1-0.9,27.2-1.3c6-10.4,11.9-20.8,17.8-31.6
		c-8.6,1.8-17.1,3.5-25.7,5.2C1667.3,1716.9,1660.8,1726,1654.3,1735.1z M1624.4,1736.6c8.9-0.5,17.9-0.9,26.9-1.3
		c6.3-9,12.7-17.9,19-27.1c-8.5,1.7-17,3.5-25.4,5.2C1638,1721.3,1631.2,1728.9,1624.4,1736.6z M1594.6,1738.1
		c8.8-0.5,17.6-0.9,26.4-1.4c6.6-7.5,13.3-14.9,19.8-22.6c-8.4,1.7-16.7,3.4-25,5C1608.8,1725.6,1601.7,1731.8,1594.6,1738.1z
		 M1565.3,1739.7c8.5-0.5,17-0.9,25.6-1.4c6.8-6,13.6-12.1,20.4-18.3c-8.1,1.6-16.2,3.3-24.3,4.9
		C1579.7,1730,1572.5,1734.8,1565.3,1739.7z M1536.6,1741.4c8-0.5,16-0.9,24.1-1.4c6.8-4.6,13.5-9.2,20.3-13.8
		c-7.7,1.5-15.4,3-23,4.6C1550.9,1734.3,1543.8,1737.8,1536.6,1741.4z M1509.5,1743c7-0.4,14-0.9,21.1-1.3
		c6.2-3.1,12.4-6.2,18.6-9.3c-6.7,1.3-13.5,2.7-20.2,4C1522.6,1738.6,1516.1,1740.8,1509.5,1743z M1489.1,1744.2
		c3.8-0.2,7.7-0.5,11.5-0.7c3.6-1.2,7.2-2.4,10.8-3.6C1503.8,1741.4,1496.5,1742.8,1489.1,1744.2z M28.2,1898.9
		c-8.6,2.6-17.1,5.1-25.5,7.7c11.9,9,24,17.9,36.2,26.8c8.6-1.8,17.2-3.6,25.9-5.4C52.5,1918.4,40.2,1908.7,28.2,1898.9z
		 M56.6,1890.6c-8.6,2.5-17.2,5-25.6,7.5c12.2,9.8,24.5,19.6,36.8,29.4c8.6-1.8,17.2-3.5,26-5.3
		C81.3,1911.7,68.9,1901.1,56.6,1890.6z M1760.4,1777c9.8,1.1,19.6,2.2,29.5,3.3c4.3-15.9,8.4-32.5,12.5-49.1
		c-9.3,0.3-18.6,0.7-27.9,1C1769.9,1747.4,1765.3,1762.5,1760.4,1777z M1728.5,1773.6c9.7,1,19.5,2.1,29.3,3.1
		c4.8-14.4,9.4-29.3,14-44.4c-9.3,0.4-18.6,0.7-27.9,1.1C1738.9,1747,1733.8,1760.6,1728.5,1773.6z M1696.6,1770.4
		c9.7,1,19.4,1.9,29.2,2.9c5.3-12.9,10.3-26.3,15.4-39.7c-9.3,0.4-18.5,0.8-27.8,1.2C1707.9,1746.8,1702.3,1758.9,1696.6,1770.4z
		 M1665,1767.3c9.6,0.9,19.3,1.9,29,2.9c5.7-11.4,11.2-23.3,16.7-35.2c-9.2,0.4-18.5,0.8-27.7,1.2
		C1677,1746.6,1671.1,1757.2,1665,1767.3z M1633.3,1764.5c9.6,0.8,19.2,1.6,28.9,2.5c6.1-10,12-20.4,18-30.8
		c-9.2,0.4-18.4,0.9-27.6,1.3C1646.2,1746.7,1639.8,1755.8,1633.3,1764.5z M1602,1761.8c9.4,0.8,19,1.7,28.5,2.5
		c6.4-8.6,12.8-17.6,19.1-26.5c-9.1,0.4-18.3,0.9-27.3,1.3C1615.5,1746.7,1608.8,1754.4,1602,1761.8z M1570.7,1759.3
		c9.4,0.7,18.7,1.4,28.2,2.2c6.7-7.2,13.4-14.8,20-22.3c-9.1,0.5-18,1-27.1,1.4C1584.8,1746.9,1577.8,1753.3,1570.7,1759.3z
		 M1539.8,1757c9.1,0.6,18.3,1.3,27.5,2c7-5.9,13.9-12.1,20.8-18.2c-8.8,0.5-17.7,0.9-26.5,1.4
		C1554.3,1747.3,1547.1,1752.3,1539.8,1757z M1509.3,1754.9c8.8,0.6,17.6,1.2,26.5,1.8c7.1-4.6,14.1-9.4,21.1-14.2
		c-8.6,0.5-17.2,1-25.7,1.5C1523.9,1747.7,1516.6,1751.4,1509.3,1754.9z M1479.4,1753.1c8.3,0.5,16.6,1,25,1.5
		c6.9-3.3,13.9-6.8,20.8-10.2c-8.1,0.5-16.2,1-24.2,1.5C1493.8,1748.3,1486.6,1750.7,1479.4,1753.1z M1451.9,1751.4
		c7,0.4,14.2,0.9,21.2,1.3c6.3-2.1,12.6-4.2,18.9-6.3c-7,0.4-14,0.9-21,1.3C1464.6,1748.9,1458.2,1750.2,1451.9,1751.4z
		 M1430.6,1750.4c3.8,0.2,7.5,0.3,11.3,0.5l10.2-2C1444.9,1749.4,1437.7,1749.9,1430.6,1750.4z M1744.6,1822.4
		c10.3,2.4,20.8,5.1,31.2,7.6c4.6-15.4,9.1-31.2,13.5-47.3c-9.9-1.1-19.8-2.3-29.6-3.3C1754.7,1794,1749.7,1808.3,1744.6,1822.4z
		 M1711,1814.6c10.3,2.4,20.7,4.7,31.1,7.2c5.1-14,10.1-28.2,15-42.8c-9.9-1.1-19.7-2.1-29.5-3.1
		C1722.1,1789.1,1716.6,1801.9,1711,1814.6z M1677.6,1807.1c10.2,2.3,20.6,4.6,30.9,7c5.5-12.6,11-25.3,16.4-38.4
		c-9.8-1-19.6-2-29.4-3C1689.6,1784.4,1683.6,1795.7,1677.6,1807.1z M1644.5,1799.7c10.1,2.2,20.4,4.5,30.6,6.8
		c5.9-11.2,11.9-22.5,17.7-34.1c-9.7-1-19.6-2-29.2-2.9C1657.3,1779.8,1650.9,1789.8,1644.5,1799.7z M1611.4,1792.8
		c10.2,2.1,20.3,4.1,30.5,6.3c6.3-9.8,12.7-19.7,18.9-29.9c-9.8-0.9-19.5-1.7-29.2-2.5C1624.9,1775.6,1618.1,1784.2,1611.4,1792.8z
		 M1578.6,1786c9.9,2,20.1,4.2,30.1,6.2c6.7-8.5,13.4-17,20-25.8c-9.6-0.8-19.3-1.7-28.8-2.5
		C1592.8,1771.5,1585.7,1778.7,1578.6,1786z M1545.9,1779.8c10,1.9,19.9,3.7,29.9,5.7c7-7.2,14-14.4,20.9-21.8
		c-9.6-0.8-19.1-1.4-28.7-2.2C1560.7,1767.7,1553.3,1773.7,1545.9,1779.8z M1513.6,1773.7c9.7,1.8,19.5,3.7,29.2,5.5
		c7.3-5.9,14.5-11.9,21.8-17.9c-9.4-0.7-18.8-1.4-28.2-2.1C1528.9,1764.1,1521.2,1768.8,1513.6,1773.7z M1481.6,1767.9
		c9.5,1.7,19,3.4,28.6,5.1c7.4-4.7,14.9-9.4,22.3-14.2c-9.3-0.6-18.4-1.2-27.6-1.8C1497.1,1760.7,1489.4,1764.3,1481.6,1767.9z
		 M1450.1,1762.6c9.1,1.5,18.3,3.1,27.4,4.7c7.5-3.5,14.9-7,22.4-10.5c-8.9-0.6-17.8-1.1-26.6-1.6
		C1465.6,1757.6,1457.9,1760.1,1450.1,1762.6z M1420,1757.5c8.3,1.3,16.8,2.8,25.1,4.2c7.3-2.3,14.5-4.7,21.8-7
		c-8.3-0.5-16.6-1-24.8-1.4C1434.7,1754.7,1427.4,1756.1,1420,1757.5z M1391.1,1753.1c7.3,1.1,14.5,2.2,21.9,3.3l19.1-3.6
		c-7.3-0.4-14.6-0.7-21.8-1.1C1403.8,1752.2,1397.5,1752.7,1391.1,1753.1z M1370.3,1749.9c3.4,0.5,6.8,1,10.2,1.5l10-0.7
		C1383.7,1750.5,1377,1750.2,1370.3,1749.9z M1728.1,1866.1c10.7,3.7,21.7,7.8,32.6,11.7c4.9-14.9,9.7-30,14.4-45.5
		c-10.4-2.5-21-5.2-31.3-7.6C1738.7,1838.8,1733.4,1852.6,1728.1,1866.1z M1693.1,1854.1c10.8,3.7,21.6,7.3,32.5,11.1
		c5.3-13.4,10.5-27.1,15.6-41.2c-10.4-2.5-20.8-4.9-31.2-7.2C1704.5,1829.5,1698.9,1842,1693.1,1854.1z M1658.4,1842.4
		c10.7,3.5,21.5,7.2,32.3,10.9c5.7-12.1,11.4-24.5,16.9-37.1c-10.4-2.4-20.8-4.7-31.1-7C1670.5,1820.5,1664.5,1831.6,1658.4,1842.4z
		 M1623.9,1831.1c10.6,3.4,21.3,7,32,10.5c6.1-10.7,12.1-21.8,18-33c-10.3-2.3-20.7-4.6-30.9-6.8
		C1636.8,1811.8,1630.4,1821.6,1623.9,1831.1z M1589.5,1820.3c10.6,3.3,21.2,6.6,31.9,10c6.5-9.4,12.8-19.2,19.2-29
		c-10.3-2.2-20.5-4.3-30.8-6.4C1603,1803.5,1596.3,1812.1,1589.5,1820.3z M1555.5,1809.6c10.3,3.1,21,6.6,31.4,9.9
		c6.8-8.2,13.5-16.6,20.2-25.1c-10.1-2.1-20.4-4.3-30.4-6.3C1569.7,1795.3,1562.6,1802.6,1555.5,1809.6z M1521.5,1799.7
		c10.5,3.1,20.8,6,31.4,9.2c7.1-6.9,14-14.1,21-21.3c-10.2-2-20.2-3.8-30.4-5.7C1536.2,1787.8,1528.9,1793.9,1521.5,1799.7z
		 M1488,1789.9c10.1,2.9,20.4,5.9,30.7,8.9c7.3-5.7,14.6-11.7,21.8-17.7c-9.9-1.9-19.9-3.8-29.8-5.6
		C1503.1,1780.3,1495.6,1785.2,1488,1789.9z M1454.7,1780.6c10,2.8,20.1,5.5,30.2,8.4c7.5-4.6,15-9.3,22.4-14.1
		c-9.9-1.8-19.6-3.5-29.4-5.2C1470.2,1773.3,1462.4,1777.1,1454.7,1780.6z M1421.6,1771.7c9.8,2.6,19.5,5.2,29.4,7.9
		c7.6-3.4,15.2-7.1,22.8-10.6c-9.6-1.7-19.1-3.3-28.6-4.9C1437.4,1766.7,1429.5,1769.3,1421.6,1771.7z M1389.6,1763.3
		c9.2,2.3,18.5,4.9,27.8,7.3c7.6-2.4,15.2-4.9,22.8-7.3c-9.1-1.5-18.2-3-27.2-4.5C1405.2,1760.3,1397.4,1761.8,1389.6,1763.3z
		 M1357.9,1755.5c8.7,2.1,17.4,4.2,26.2,6.4c7.3-1.4,14.6-2.8,21.9-4.2c-8.6-1.3-17.1-2.6-25.6-3.9
		C1372.9,1754.4,1365.4,1754.9,1357.9,1755.5z M1329.4,1748.5c6.9,1.6,14,3.5,21,5.2c6.4-0.5,12.9-0.9,19.4-1.4
		c-6.7-1-13.4-2.1-20.1-3C1343,1749,1336.2,1748.7,1329.4,1748.5z M1310.1,1744c2.7,0.6,5.4,1.2,8.1,1.8c2.4,0.1,4.9,0.2,7.4,0.3
		C1320.4,1745.3,1315.3,1744.6,1310.1,1744z M1710.9,1908.1c11.2,5,22.7,10.5,34.1,15.7c5.1-14.1,10-29,14.9-43.8
		c-10.9-3.9-21.9-8-32.7-11.7C1721.9,1881.8,1716.5,1895.2,1710.9,1908.1z M1674.5,1892.2c11.4,5,22.6,9.7,34,14.8
		c5.5-12.8,10.9-26.2,16.2-39.6c-11-3.8-21.8-7.4-32.7-11.1C1686.3,1868.5,1680.4,1880.5,1674.5,1892.2z M1638.4,1876.5
		c11.2,4.8,22.4,9.8,33.7,14.7c5.9-11.6,11.8-23.6,17.5-35.7c-10.8-3.7-21.7-7.4-32.4-10.9C1651,1855.4,1644.7,1866,1638.4,1876.5z
		 M1602.5,1861.3c11.1,4.6,22.3,9.3,33.5,14.1c6.3-10.4,12.5-20.9,18.7-31.7c-10.8-3.6-21.6-7.1-32.3-10.6
		C1615.9,1842.7,1609.2,1852.1,1602.5,1861.3z M1566.8,1846.7c11.1,4.5,22.1,9,33.3,13.7c6.7-9.2,13.3-18.5,19.8-28
		c-10.8-3.5-21.4-6.8-32.1-10.1C1580.9,1830.6,1573.8,1838.6,1566.8,1846.7z M1531.6,1832.3c10.8,4.3,21.9,9,32.8,13.4
		c7-8,13.9-16,20.9-24.2c-10.5-3.3-21.2-6.8-31.7-10C1546.3,1818.6,1538.9,1825.4,1531.6,1832.3z M1496.3,1818.7
		c10.9,4.2,21.7,8.2,32.8,12.6c7.3-6.8,14.6-13.6,21.8-20.6c-10.7-3.2-21.1-6.2-31.7-9.3C1511.6,1807.3,1503.9,1813,1496.3,1818.7z
		 M1461.7,1805.4c10.6,4,21.3,8.2,32,12.3c7.5-5.7,15.1-11.3,22.6-17.1c-10.4-3-20.8-6.2-31.1-9.1
		C1477.4,1796.3,1469.5,1800.8,1461.7,1805.4z M1427.1,1792.7c10.5,3.8,21.1,7.6,31.7,11.6c7.7-4.6,15.5-9.1,23.2-13.7
		c-10.4-2.9-20.6-5.7-30.9-8.5C1443.2,1785.7,1435.2,1789.2,1427.1,1792.7z M1393,1780.6c10.2,3.6,20.5,7.3,30.9,11
		c7.9-3.5,15.8-6.9,23.7-10.4c-10.1-2.7-20.1-5.5-30.1-8.1C1409.3,1775.6,1401.2,1778,1393,1780.6z M1359.8,1768.8
		c9.8,3.3,19.7,6.9,29.6,10.4c8-2.4,15.9-4.9,23.9-7.3c-9.7-2.6-19.5-5.1-29.1-7.6C1375.9,1765.8,1367.9,1767.3,1359.8,1768.8z
		 M1326.5,1757.8c9.6,3.2,19,6.2,28.7,9.5c7.8-1.5,15.6-2.9,23.4-4.4c-9.5-2.4-18.9-4.6-28.2-6.9
		C1342.3,1756.6,1334.4,1757.2,1326.5,1757.8z M1295.2,1747.5c8.4,2.7,17,5.6,25.5,8.4c7.4-0.6,14.8-1.1,22.2-1.7
		c-8.3-2-16.8-4.2-25-6.1C1310.2,1747.9,1302.7,1747.7,1295.2,1747.5z M1265.4,1738.3c7.4,2.3,14.7,4.4,22.1,6.7
		c6.1,0.1,12.1,0.3,18.2,0.4c-7.7-1.8-15.3-3.4-22.9-5.1C1277,1739.6,1271.2,1739,1265.4,1738.3z M1243.3,1731.6
		c3.2,1,6.4,1.9,9.6,2.9c2.4,0.3,4.8,0.5,7.2,0.8C1254.5,1734.1,1248.8,1732.7,1243.3,1731.6z M1692.6,1948.4
		c11.7,6.3,23.5,12.8,35.3,19.3c5.5-13.7,11-27.3,16.3-41.7c-11.4-5.3-22.9-10.7-34.2-15.8
		C1704.3,1923.4,1698.5,1935.9,1692.6,1948.4z M1655,1928.7c11.8,6.2,23.4,12.1,35.2,18.5c5.9-12.5,11.7-24.9,17.4-38
		c-11.5-5.2-22.8-9.9-34.2-14.9C1667.4,1906.1,1661.2,1917.4,1655,1928.7z M1617.8,1909.2c11.5,5.9,23.2,12.2,34.8,18.3
		c6.2-11.2,12.4-22.5,18.4-34.2c-11.3-5-22.7-10-33.9-14.8C1630.8,1889,1624.3,1899.2,1617.8,1909.2z M1580.8,1890.4
		c11.6,5.8,23.1,11.5,34.7,17.5c6.5-10,12.9-20.1,19.3-30.5c-11.3-4.8-22.5-9.5-33.7-14.2
		C1594.4,1872.5,1587.6,1881.6,1580.8,1890.4z M1544,1872.2c11.4,5.6,22.9,11.3,34.4,17.1c6.8-8.8,13.6-17.8,20.3-27
		c-11.2-4.7-22.4-9.2-33.5-13.7C1558.2,1856.6,1551.1,1864.5,1544,1872.2z M1507.7,1854.4c11.2,5.4,22.6,11.1,34,16.7
		c7.1-7.6,14.1-15.5,21.1-23.5c-11-4.5-22.2-9.2-33.1-13.5C1522.4,1840.9,1515.1,1847.8,1507.7,1854.4z M1471.4,1837.4
		c11.3,5.3,22.5,10.4,33.9,15.9c7.3-6.5,14.6-13.3,21.9-20.1c-11.2-4.4-22-8.5-33.1-12.7C1486.5,1826.1,1479,1831.9,1471.4,1837.4z
		 M1435.7,1820.7c10.9,5,22.1,10.3,33.2,15.5c7.6-5.4,15.1-11.1,22.6-16.8c-10.8-4.2-21.7-8.5-32.4-12.5
		C1451.3,1811.6,1443.5,1816.2,1435.7,1820.7z M1400,1804.7c11,4.9,21.9,9.6,33,14.7c7.7-4.4,15.5-9,23.2-13.6
		c-10.9-4.1-21.5-7.8-32.3-11.7C1416,1797.7,1408,1801.3,1400,1804.7z M1364.8,1789.2c10.7,4.6,21.5,9.4,32.3,14.2
		c7.9-3.4,15.8-6.9,23.7-10.4c-10.5-3.8-21.1-7.6-31.5-11.3C1381.1,1784.2,1372.9,1786.8,1364.8,1789.2z M1330.2,1774.4
		c10.3,4.3,20.8,8.9,31.2,13.4c8-2.4,16.1-4.9,24.1-7.4c-10.2-3.6-20.5-7.2-30.6-10.6C1346.7,1771.3,1338.4,1772.8,1330.2,1774.4z
		 M1295.6,1760.2c10.2,4.2,20.3,8.2,30.6,12.5c8-1.5,16.1-3,24.1-4.5c-10.1-3.4-20-6.6-29.9-9.9
		C1312.1,1758.9,1303.8,1759.6,1295.6,1760.2z M1262.7,1746.8c9.3,3.7,18.7,7.7,28.1,11.5c7.9-0.6,15.9-1.2,23.8-1.8
		c-9.1-3-18.4-6.2-27.5-9.1C1278.9,1747.1,1270.8,1746.9,1262.7,1746.8z M1230.1,1734.3c8.9,3.4,17.5,6.5,26.5,10
		c7.4,0.1,14.8,0.3,22.2,0.5c-8.9-2.8-17.7-5.3-26.5-8C1244.9,1735.9,1237.5,1735.1,1230.1,1734.3z M1200.7,1723.2
		c6.8,2.5,13.6,5.1,20.4,7.7c6.2,0.7,12.4,1.4,18.6,2.1c-6.7-2-13.4-4.1-20-6.1C1213.4,1725.7,1207.1,1724.4,1200.7,1723.2z
		 M1183.2,1716.5c1.4,0.5,2.8,1.1,4.2,1.6c1.9,0.4,3.7,0.7,5.6,1.1C1189.7,1718.3,1186.5,1717.5,1183.2,1716.5z M1674,1987.4
		c12.2,7.5,24.4,15.1,36.7,22.8c5.6-12.8,10.9-26.7,16.3-40.3c-11.9-6.5-23.7-13.1-35.4-19.4C1685.8,1963,1680,1975.6,1674,1987.4z
		 M1635.1,1963.9c12.2,7.4,24.2,14.5,36.5,22.1c6-11.7,11.7-24.3,17.5-36.7c-11.9-6.4-23.6-12.3-35.4-18.6
		C1647.6,1942,1641.5,1953.2,1635.1,1963.9z M1596.8,1940.7c11.9,7,24.1,14.6,36.1,21.8c6.3-10.6,12.5-21.8,18.6-33
		c-11.7-6.1-23.4-12.4-35-18.4C1610,1921.2,1603.4,1931.1,1596.8,1940.7z M1558.5,1918.5c12,7,23.9,13.7,36.1,20.9
		c6.6-9.5,13.1-19.4,19.6-29.4c-11.8-6-23.3-11.8-34.9-17.6C1572.4,1901.2,1565.5,1910,1558.5,1918.5z M1520.6,1896.7
		c11.8,6.7,23.7,13.6,35.6,20.5c7-8.5,13.8-17.2,20.7-26c-11.6-5.8-23.1-11.5-34.6-17.2C1535.1,1881.7,1527.9,1889.3,1520.6,1896.7z
		 M1483.2,1875.5c11.6,6.5,23.5,13.2,35.2,19.9c7.2-7.4,14.4-14.9,21.6-22.6c-11.4-5.6-22.9-11.4-34.2-16.8
		C1498.3,1862.7,1490.7,1869.1,1483.2,1875.5z M1445.8,1855.2c11.7,6.4,23.3,12.5,35.1,19.1c7.5-6.4,15-12.8,22.5-19.3
		c-11.5-5.5-22.8-10.7-34.2-16C1461.4,1844.5,1453.6,1849.8,1445.8,1855.2z M1409.1,1835.2c11.3,6,22.9,12.5,34.3,18.7
		c7.7-5.3,15.5-10.6,23.2-16.1c-11.2-5.2-22.5-10.6-33.5-15.7C1425.1,1826.6,1417.1,1830.9,1409.1,1835.2z M1372.4,1816.2
		c11.4,5.9,22.7,11.6,34.2,17.7c7.9-4.3,15.9-8.6,23.8-13.1c-11.3-5.1-22.3-9.9-33.5-14.9
		C1388.8,1809.4,1380.6,1812.8,1372.4,1816.2z M1336.3,1797.6c11.1,5.6,22.2,11.3,33.4,17.1c8.1-3.4,16.2-6.7,24.4-10.1
		c-11-4.9-21.9-9.7-32.7-14.3C1352.9,1792.8,1344.6,1795.2,1336.3,1797.6z M1300.8,1779.8c10.7,5.3,21.6,10.8,32.4,16.3
		c8.2-2.4,16.5-4.8,24.7-7.2c-10.7-4.6-21.4-9.2-32-13.7C1317.5,1776.7,1309.2,1778.2,1300.8,1779.8z M1265.2,1762.7
		c10.7,5.1,21.2,10,32,15.3c8.2-1.5,16.4-3,24.7-4.5c-10.6-4.4-21-8.6-31.5-12.9C1281.9,1761.3,1273.5,1762,1265.2,1762.7z
		 M1230.9,1746.3c9.9,4.6,20,9.6,30,14.4c8.2-0.7,16.3-1.4,24.5-2c-9.8-4-19.8-8.2-29.4-12
		C1247.6,1746.5,1239.3,1746.4,1230.9,1746.3z M1196.6,1730.7c9.8,4.4,19.4,8.6,29.4,13.2c7.9,0.1,15.7,0.1,23.6,0.3
		c-9.8-3.8-19.4-7.3-29.1-11C1212.5,1732.3,1204.5,1731.5,1196.6,1730.7z M1163.8,1716c8.6,3.8,17.4,7.7,26.1,11.6
		c7.2,0.7,14.4,1.3,21.6,2.1c-8.3-3.1-16.7-6.4-24.9-9.4C1179,1718.9,1171.3,1717.4,1163.8,1716z M1135.3,1703.4
		c6.5,2.8,13.2,5.9,19.7,8.7c6.1,1.1,12.1,2.1,18.3,3.2c-7.1-2.6-14-4.8-21.1-7.3C1146.6,1706.5,1140.8,1704.9,1135.3,1703.4z
		 M1116.9,1695.9c1,0.4,2,0.8,3,1.2c0.7,0.2,1.3,0.3,2,0.5C1120.2,1697,1118.6,1696.4,1116.9,1695.9z M1653.8,2024.2
		c12.5,8.6,25,17.1,37.7,26c6.1-12.5,12.2-24.7,18.1-37.8c-12.3-7.7-24.6-15.3-36.7-22.8C1666.7,2001.5,1660.2,2012.7,1653.8,2024.2
		z M1614.1,1997.3c12.5,8.4,24.9,16.7,37.5,25.4c6.4-11.4,12.9-22.5,19.1-34.5c-12.3-7.6-24.4-14.8-36.7-22.2
		C1627.4,1976.8,1620.7,1986.9,1614.1,1997.3z M1574.8,1970.7c12.1,8,24.7,16.7,37,25c6.7-10.3,13.4-20.4,19.9-31.2
		c-12.1-7.3-24.3-14.9-36.3-21.9C1588.7,1952.3,1581.7,1961.5,1574.8,1970.7z M1535.6,1945.3c12.4,8.1,24.5,15.6,37.1,23.9
		c6.9-9.2,13.8-18.3,20.6-28c-12.2-7.2-24.1-13.9-36.2-21C1549.9,1928.9,1542.7,1937.1,1535.6,1945.3z M1496.9,1920.3
		c12.1,7.7,24.3,15.6,36.5,23.6c7.2-8.2,14.3-16.3,21.4-24.9c-12-7-24-13.8-35.8-20.6C1511.6,1905.9,1504.3,1913.2,1496.9,1920.3z
		 M1458.5,1896c12,7.5,24.1,15.2,36.2,22.9c7.4-7.1,14.7-14.3,22-21.7c-11.9-6.7-23.7-13.5-35.5-20
		C1473.7,1883.6,1466.1,1889.9,1458.5,1896z M1420.2,1872.6c12,7.4,23.9,14.5,36,22.1c7.6-6.1,15.1-12.4,22.7-18.7
		c-11.9-6.6-23.6-12.8-35.4-19.2C1435.8,1862.1,1428.1,1867.4,1420.2,1872.6z M1382.7,1849.6c11.6,6.9,23.5,14.4,35.2,21.6
		c7.8-5.1,15.5-10.4,23.3-15.8c-11.5-6.3-23.2-12.8-34.6-18.8C1398.7,1840.9,1390.7,1845.4,1382.7,1849.6z M1345.1,1827.5
		c11.8,6.9,23.4,13.5,35.3,20.6c7.9-4.2,15.9-8.5,23.8-12.9c-11.7-6.2-23.1-11.9-34.6-17.9
		C1361.4,1820.7,1353.2,1824.2,1345.1,1827.5z M1308,1806c11.4,6.5,22.9,13.3,34.5,20c8.1-3.2,16.2-6.7,24.3-10
		c-11.3-5.9-22.6-11.7-33.8-17.3C1324.6,1801.1,1316.3,1803.6,1308,1806z M1271.5,1785.2c11.1,6.2,22.4,12.7,33.7,19.2
		c8.2-2.4,16.5-4.8,24.8-7.3c-11.1-5.6-22.2-11.2-33.1-16.6C1288.3,1782.1,1279.9,1783.6,1271.5,1785.2z M1234.9,1765.2
		c11.1,6.1,22.1,11.9,33.3,18.2c8.3-1.5,16.6-3.1,25-4.6c-11-5.4-21.8-10.5-32.7-15.7C1251.9,1763.8,1243.4,1764.5,1234.9,1765.2z
		 M1199.6,1746c10.4,5.5,21,11.5,31.5,17.2c8.3-0.7,16.7-1.4,25.1-2.1c-10.3-4.9-20.8-10.1-30.9-14.8
		C1216.7,1746.1,1208.2,1746,1199.6,1746z M1164.3,1727.6c10.4,5.4,20.5,10.4,31,16c8.3,0,16.6,0.1,24.9,0.2
		c-10.5-4.9-20.7-9.2-31.1-13.9C1180.8,1729.2,1172.5,1728.4,1164.3,1727.6z M1130.1,1710.2c9.4,4.7,18.9,9.6,28.5,14.5
		c7.9,0.7,15.9,1.5,23.8,2.2c-9.4-4.2-18.9-8.5-28.2-12.6C1146.1,1713,1138.1,1711.6,1130.1,1710.2z M1098.6,1694.3
		c8,3.9,16.3,8.2,24.4,12.3c7.4,1.3,14.9,2.6,22.4,3.9c-8.9-3.9-17.6-7.5-26.5-11.2C1112.2,1697.6,1105.4,1696,1098.6,1694.3z
		 M1067.8,1679.7c6.7,3.2,13.3,6.2,20.1,9.5c5.4,1.3,10.9,2.7,16.3,4c-7.2-3-14.3-5.9-21.4-8.8
		C1077.7,1682.8,1072.8,1681.3,1067.8,1679.7z M1048,1670.3c1.4,0.6,2.7,1.3,4.1,1.9c1.8,0.5,3.5,1.1,5.3,1.7
		C1054.2,1672.7,1051.1,1671.6,1048,1670.3z M587.9,2265.6c7.1,4.9,14.2,10,21.3,14.8c414.5,224.7,838.4,269.2,1081.4-228.1
		c-12.8-8.9-25.3-17.4-37.9-26C1396.9,2482.4,986.1,2457.2,587.9,2265.6z M547.9,2237.2c8.6,6.2,17.2,12.4,25.7,18.4
		c401.8,197.5,818.3,228.7,1076.7-231c-12.6-8.7-25.1-17-37.6-25.5C1340.7,2419.2,935,2404.4,547.9,2237.2z M509.2,2208.8
		c9.6,7.2,19.3,14.2,28.9,21.2c389.2,170.9,798.5,189.5,1072.4-232.3c-12.4-8.4-24.9-17.1-37.1-25.1
		C1285.3,2355.7,885,2351.3,509.2,2208.8z M470.8,2179.6c10.1,7.8,20.3,15.7,30.4,23.4c377.3,145.3,780.3,152.5,1069.9-231.8
		c-12.6-8.3-24.8-15.9-37.2-24C1230,2292.4,835.2,2297.7,470.8,2179.6z M432.1,2149.5c11,8.7,21.9,17.2,33,25.7
		c365.2,119.9,761.7,116.4,1066.7-229.5c-12.3-8-24.6-16-36.7-23.7C1175.1,2229.5,785.4,2243.7,432.1,2149.5z M393.5,2118.6
		c11.3,9.1,22.6,18.2,33.9,27.2c353.8,95.6,744.6,82.6,1065.5-225.1c-12.2-7.8-24.4-15.5-36.4-23
		C1120.5,2166.9,735.8,2189.5,393.5,2118.6z M355.1,2086.8c11.4,9.5,22.8,19.1,34.4,28.5c342.6,71.9,728.2,50.4,1064.9-219
		c-12.2-7.6-24.2-14.9-36.2-22.2C1066.2,2104.7,686.5,2134.9,355.1,2086.8z M316.1,2053.9c11.8,10,23.6,20,35.5,29.9
		c331.5,48.9,711.9,19.4,1064.2-211.3c-11.8-7.2-23.8-14.8-35.5-21.8C1012.5,2043.1,637.1,2080.1,316.1,2053.9z M276.8,2020.1
		c12,10.5,24.1,20.9,36.2,31.2c321,26.6,696.7-9.8,1064.9-201.9c-12.1-7.2-23.7-13.8-35.7-20.8
		C958.7,1982,587.5,2024.9,276.8,2020.1z M237.3,1985.1c12.2,10.9,24.4,21.8,36.7,32.6c310.5,5.1,681.9-37.4,1065.6-190.6
		c-11.7-6.8-23.3-13.6-34.8-20.2C905.5,1921.4,538.1,1969.3,237.3,1985.1z M197.4,1949.1c12.4,11.3,24.9,22.6,37.4,33.8
		c300.5-15.6,667.8-63.3,1067.2-177.6c-11.5-6.6-22.9-13.1-34.3-19.4C852.5,1861.4,488.6,1913.5,197.4,1949.1z M157.1,1912.1
		c12.6,11.7,25.3,23.3,38,34.9c290.8-35.5,654.4-87.5,1069.3-163c-11.4-6.4-22.6-12.4-33.9-18.5
		C799.7,1802.1,438.9,1857.4,157.1,1912.1z M116.6,1874c12.7,12.1,25.5,24.1,38.4,36.1c281.4-54.6,641.6-110,1071.8-146.6
		c-10.7-5.8-21.6-12-32.2-17.6C747.8,1743.4,389.6,1801.1,116.6,1874z M75.8,1834.7c12.9,12.4,25.8,24.9,38.9,37.3
		c272.4-72.9,629.9-130.7,1075.6-128.5c-11-5.8-21.6-10.9-32.4-16.5C695.7,1685.5,339.9,1744.5,75.8,1834.7z M34.6,1794.5
		c13,12.8,26.1,25.6,39.3,38.4c263.5-90.2,618-149.4,1078.2-108.8c-10-5.1-20.1-10.3-30-15.3C644.4,1628.3,290.5,1687.8,34.6,1794.5
		z M83.1,1880.7c-12.9-11.7-25.5-23.4-38.2-35.1c-8.6,3.1-17.1,6.3-25.5,9.4c12.5,11,25.1,22,37.9,33
		C65.8,1885.5,74.4,1883.1,83.1,1880.7z M122.9,1916.4c-12.7-11.3-25.3-22.6-37.8-33.9c-8.7,2.4-17.2,4.9-25.7,7.3
		c12.4,10.6,24.8,21.2,37.4,31.8C105.4,1919.8,114.2,1918.1,122.9,1916.4z M162.4,1951c-12.5-10.9-24.9-21.7-37.2-32.6
		c-8.7,1.7-17.4,3.5-26,5.2c12.2,10.2,24.6,20.4,37,30.6C144.8,1953.1,153.6,1952,162.4,1951z M201.3,1984.5
		c-12.3-10.4-24.4-20.9-36.5-31.4c-8.7,1.1-17.5,2.1-26.1,3.1c12,9.8,24.1,19.6,36.3,29.4C183.7,1985.2,192.4,1984.9,201.3,1984.5z
		 M239.6,2016.9c-12-10-23.9-20.1-35.7-30.2c-8.8,0.4-17.5,0.8-26.2,1.1c11.8,9.4,23.6,18.8,35.5,28.2
		C222,2016.3,230.8,2016.6,239.6,2016.9z M277.9,2048.2c-11.8-9.6-23.6-19.2-35.3-28.9c-8.8-0.2-17.5-0.5-26.2-0.8
		c11.6,9,23.2,18,34.9,26.9C260.1,2046.3,269,2047.3,277.9,2048.2z M315.4,2078.2c-11.4-9.1-22.9-18.2-34.2-27.3
		c-8.9-0.9-17.6-1.8-26.3-2.8c11.4,8.6,22.8,17.1,34.3,25.6C297.9,2075.3,306.6,2076.8,315.4,2078.2z M351.9,2107
		c-10.9-8.5-21.8-17.1-32.6-25.7c-8.7-1.4-17.3-2.9-25.9-4.5c11,8.1,22,16.2,33.1,24.2C334.9,2103.1,343.4,2105,351.9,2107z
		 M388.5,2134.7c-10.6-8-21.3-16-31.8-24.1c-8.4-1.9-16.7-3.8-25-5.8c10.5,7.5,20.9,15,31.5,22.4
		C371.5,2129.7,380,2132.2,388.5,2134.7z M424,2161c-10.1-7.4-20.1-14.8-30.1-22.3c-8.1-2.4-16.2-4.6-24.3-7.1
		c10,7,20.1,13.7,30.1,20.5C407.8,2155.2,415.9,2158.2,424,2161z M458.3,2185.9c-9.2-6.5-18.3-13.2-27.4-19.9
		c-7.5-2.6-15-5.2-22.5-7.9c9,6,17.9,12,26.9,17.9C443,2179.3,450.7,2182.8,458.3,2185.9z M491,2208.7c-8-5.5-16-10.9-23.9-16.5
		c-6.4-2.6-12.7-5.2-19-7.9c7.5,4.9,15,9.8,22.5,14.6C477.3,2202.1,484.1,2205.4,491,2208.7z M517.4,2226.9c-4.4-3-8.9-6.2-13.3-9.2
		c-4.7-2.2-9.4-4.4-14.1-6.7c5.7,3.6,11.4,7,17.1,10.5C510.6,2223.3,514,2225.1,517.4,2226.9z M1733.2,2082.5
		c-219.8,517.3-629.9,481.3-1043,251.2c436.9,274.9,871.2,343.1,1081.4-224C1758.7,2100.4,1746,2091.6,1733.2,2082.5z
		 M1751.3,2038.7c-5.5,14.4-11.3,27.9-17.1,41.6c12.8,9,25.4,17.9,38.3,27.1c5.4-14.7,10.8-29.6,16-45.1
		C1775.9,2054.2,1763.7,2046.6,1751.3,2038.7z M1767.6,1992.3c-5.1,14.9-10,30.1-15.4,44.2c12.4,7.9,24.5,15.4,37,23.5
		c5-15.3,9.6-31.4,14.3-47.6C1791.4,2005.6,1779.5,1999,1767.6,1992.3z M1783.6,1944.2c-4.9,15.8-10.1,30.7-15.2,45.8
		c11.9,6.7,23.8,13.2,35.8,20c4.7-16.3,9.6-32.3,14.1-49.4C1806.7,1955.1,1795.1,1949.6,1783.6,1944.2z M1797.9,1893.6
		c-4.5,16.3-8.9,32.7-13.6,48.3c11.5,5.4,23,10.8,34.5,16.3c4.3-16.7,8.2-34.6,12.1-52.2C1819.9,1901.9,1808.8,1897.7,1797.9,1893.6
		z M1811.6,1841.2c-4.2,17.2-8.6,33.8-13.1,50.2c10.9,4,22,8.2,32.9,12.3c4-17.8,8-35.7,11.6-54.3
		C1832.6,1846.7,1822,1843.8,1811.6,1841.2z M1824.1,1786.7c-3.9,17.8-7.9,35.2-12,52.2c10.4,2.6,21,5.5,31.4,8.2
		c3.6-18.4,7.1-37.4,10.4-56.7C1844,1789.2,1834,1787.9,1824.1,1786.7z M1835.6,1730.1c-3.5,18.4-7.1,36.7-10.9,54.3
		c9.8,1.2,19.8,2.5,29.6,3.7c3.3-19.1,6.3-38.9,9.2-58.9C1854.2,1729.5,1844.8,1729.8,1835.6,1730.1z M1846.4,1671.4
		c-3.3,19.3-6.9,37.8-10.4,56.4c9.3-0.3,18.6-0.6,27.9-0.9c2.9-20.1,5.9-40.1,8.6-61.1C1863.8,1667.6,1855.1,1669.5,1846.4,1671.4z
		 M1855.6,1610.7c-2.8,19.6-5.6,39.4-8.7,58.1c8.6-1.8,17.3-3.7,25.9-5.6c2.5-20.3,4.7-41.7,6.8-63
		C1871.6,1603.8,1863.6,1607.3,1855.6,1610.7z M1864.7,1547.5c-2.7,20.8-5.8,40.4-8.7,60.4c8-3.4,16-6.9,24-10.3
		c2.2-21.7,4.7-42.8,6.7-65.3C1879.3,1537.4,1872,1542.5,1864.7,1547.5z M1871.7,1483.1c-2.2,20.6-4.2,41.6-6.6,61.3
		c7.3-5,14.6-10.1,21.8-15.1c1.8-21.3,3.1-43.9,4.5-66.2C1884.8,1469.9,1878.3,1476.5,1871.7,1483.1z M1878.6,1415.8
		c-2,21.7-4.3,42.6-6.6,63.6c6.5-6.6,13.1-13.1,19.6-19.8c1.5-22.7,3.2-44.9,4.4-68.4C1890.3,1399.6,1884.5,1407.6,1878.6,1415.8z
		 M1883.8,1347.6c-1.5,21.4-3,43-4.8,63.6c5.2-7.3,10.5-14.5,15.6-22.1l0.1-0.1l0.1-0.1l1.4-1.4c1.1-22,1.8-44.9,2.6-67.7l-2.2,3.1
		C1892.4,1331.4,1888.1,1339.4,1883.8,1347.6z M1888.7,1276.3c-1.3,22.2-2.8,43.8-4.4,65.3c3.4-6.5,6.9-13,10.2-19.8l0-0.1l0.1-0.1
		c1.4-2.1,2.9-4.1,4.3-6.2c0.8-22.9,1.7-45.5,2.2-69.2c-1.5,3-3,6-4.5,9C1894.1,1262.5,1891.4,1269.4,1888.7,1276.3z M1892,1204.6
		c-0.9,21.6-1.8,43.3-3,64.2c1.8-4.7,3.7-9.4,5.4-14.3l0-0.1l0-0.1c2.3-4.5,4.5-8.9,6.7-13.4c0.5-22.1,0.6-45.1,0.8-68l-5.3,14.8
		C1895.2,1193.5,1893.6,1199,1892,1204.6z M1894.8,1129.8c-0.6,21.7-1.4,43.1-2.3,64.2c0.6-2.3,1.3-4.5,1.9-6.8l0,0l0-0.1
		c2.6-7.1,5.1-14.2,7.6-21.2c0.2-22.8,0.5-45.3,0.4-68.6c-1.9,7.7-3.8,15.4-5.8,23.1h0C1896.1,1123.6,1895.5,1126.7,1894.8,1129.8z
		 M1896.4,1055.6c-0.4,20.6-0.7,41.3-1.3,61.4c2.4-9.7,4.9-19.4,7.3-29.1c-0.1-20.9-0.5-42.5-0.9-64.1l-4.8,28.9
		C1896.6,1053.7,1896.5,1054.6,1896.4,1055.6z M1897.2,980.2c0,19.8-0.2,39.1-0.5,58.2l4.6-28c-0.4-21.1-0.5-41.4-1-62.7
		L1897.2,980.2z M1897,912c0,14.8,0.2,29.9,0.2,44.5l2.6-26.8c-0.4-14.7-1.1-30-1.6-45.2L1897,912z M1896.8,850.2c0,2.7,0,5.2,0,7.9
		l0.2-4.4c-0.1-2.1-0.1-4.2-0.2-6.3L1896.8,850.2z M1894.9,980.1c0-2.2,0-4.5,0-6.7c-0.1,3.6-0.2,7.2-0.4,10.8L1894.9,980.1z
		 M1894,1055.5c0.3-16,0.8-31.4,1-47.7c-0.7,9.9-1.6,19.3-2.3,29.2c-0.6,14.5-1.2,28.7-1.9,42.8
		C1891.9,1071.7,1893,1063.8,1894,1055.5z M1892.5,1129.6c0.5-17.2,0.8-35.1,1.1-52.8c-1.5,12.2-3.2,24-4.8,36
		c-1,17-2,34.3-3.1,51.1C1888,1152.5,1890.3,1141.3,1892.5,1129.6z M1889.7,1204.3c0.9-20.3,1.8-40.3,2.5-61.1
		c-2.4,12.9-5,25.5-7.5,38.1c-1.4,19.4-3,38.2-4.5,57.1C1883.4,1227.1,1886.6,1215.9,1889.7,1204.3z M1886.3,1275.9
		c1.2-19.8,2-40.5,2.9-61c-3.3,12.3-6.7,24.4-10.1,36.5c-1.6,19.2-3.2,38.3-5,56.8C1878.1,1297.5,1882.3,1286.8,1886.3,1275.9z
		 M1881.5,1347c1.6-21.1,3.2-41.9,4.5-63.6c-4.2,11.2-8.4,22.3-12.7,33.3c-2.1,20.1-4.4,39.4-6.7,59
		C1871.6,1366.3,1876.5,1356.7,1881.5,1347z M1876.3,1415c1.8-20,3.2-41.2,4.7-62c-5.1,9.8-10.1,19.7-15.2,29.4
		c-2.2,19.2-4.4,38.6-6.9,57.1C1864.7,1431.5,1870.5,1423.2,1876.3,1415z M1869.3,1482.2c2.2-20.7,4.6-41.1,6.6-62.5
		c-5.9,8.3-11.7,16.7-17.6,24.9c-2.7,19.7-5.8,38.5-8.7,57.6C1856.2,1495.5,1862.8,1488.8,1869.3,1482.2z M1862.4,1546.3
		c2.5-19.4,4.4-40.1,6.5-60.4c-6.6,6.7-13.2,13.5-19.9,20.2c-2.8,18.6-5.5,37.5-8.6,55.4C1847.8,1556.5,1855.1,1551.3,1862.4,1546.3
		z M1853.3,1609.1c2.9-19.8,6-39.2,8.6-59.7c-7.3,5.1-14.7,10.2-22,15.2c-3.3,18.8-7,36.5-10.6,54.7
		C1837.3,1616,1845.3,1612.6,1853.3,1609.1z M1844.2,1669.4c3.1-18.6,5.9-38.2,8.7-57.6c-8,3.4-16.1,6.9-24.1,10.3
		c-3.4,17.8-6.8,35.7-10.5,52.8C1826.9,1673.1,1835.6,1671.3,1844.2,1669.4z M1833.4,1727.8c3.5-18.4,7.1-36.8,10.3-55.9
		c-8.7,1.9-17.4,3.7-26.1,5.6c-3.9,17.6-8,34.4-12.1,51.3C1814.8,1728.5,1824.1,1728.1,1833.4,1727.8z M1822.1,1784.1
		c3.8-17.5,7.4-35.6,10.9-53.9c-9.4,0.3-18.7,0.6-28,1c-4.1,16.8-8.2,33.4-12.5,49.5C1802.3,1781.8,1812.2,1782.9,1822.1,1784.1z
		 M1809.6,1838.3c4.1-16.9,8.1-34.2,12-51.9c-10-1.2-19.8-2.3-29.7-3.4c-4.4,16.3-9,32.1-13.6,47.7
		C1788.7,1833.2,1799,1835.6,1809.6,1838.3z M1796,1890.5c4.5-16.3,8.9-32.8,13.1-49.9c-10.6-2.7-21-5.1-31.5-7.7
		c-4.7,15.6-9.5,30.8-14.4,45.8C1774.1,1882.6,1785,1886.4,1796,1890.5z M1781.8,1940.8c4.7-15.4,9.1-31.8,13.6-48
		c-11.1-4.1-22-7.9-32.9-11.8c-4.9,14.9-9.9,29.8-15,44C1758.9,1930.2,1770.2,1935.4,1781.8,1940.8z M1765.9,1988.7
		c5.1-15,10.4-29.9,15.2-45.6c-11.6-5.4-23-10.6-34.5-15.9c-5.3,14.4-10.8,28.1-16.3,41.9C1742.1,1975.6,1754,1982.1,1765.9,1988.7z
		 M1749.7,2035c5.3-14,10.3-29.1,15.4-44c-12-6.7-23.8-13.2-35.7-19.7c-5.4,13.6-10.7,27.6-16.4,40.4
		C1725.2,2019.4,1737.5,2027.1,1749.7,2035z M1731.8,2078.6c5.8-13.6,11.5-27.1,17.1-41.4c-12.3-7.8-24.6-15.6-36.8-23.3
		c-5.9,13.2-12.1,25.4-18.2,37.9C1706.4,2060.6,1719.1,2069.7,1731.8,2078.6z M646.5,2305.4c426.7,251.3,857.2,309,1084.4-224.5
		c-12.7-9-25.4-18.1-38-26.9c-239.2,491-654,455.9-1062.7,240.7C635.6,2298.3,641,2301.8,646.5,2305.4z M560.6,2252.2
		c4.3,2.8,8.6,5.7,12.9,8.4c5,2.9,10.1,5.9,15.1,8.7c-5.5-3.8-10.9-7.6-16.4-11.4C568.3,2256,564.4,2254.1,560.6,2252.2z
		 M516.9,2223.4c8.2,5.5,16.4,10.9,24.7,16.3c5.6,2.9,11.2,5.7,16.9,8.5c-7.3-5.2-14.5-10.7-21.8-16
		C530.1,2229.3,523.5,2226.4,516.9,2223.4z M477.8,2196.4c9.2,6.4,18.4,12.8,27.6,19.1c7.1,3.3,14.3,6.4,21.5,9.6
		c-9-6.6-18-13.2-27-19.9C492.5,2202.2,485.1,2199.3,477.8,2196.4z M439.3,2168.9c9.7,7,19.5,14.1,29.3,21c8,3.3,16,6.4,24,9.5
		c-9.6-7.3-19.2-14.7-28.8-22.1C455.5,2174.7,447.4,2171.7,439.3,2168.9z M400.7,2140.8c10.5,7.8,21.1,15.5,31.7,23.1
		c8.4,2.9,16.8,5.9,25.2,8.7c-10.5-8.2-21-16.4-31.4-24.7C417.6,2145.6,409.1,2143.2,400.7,2140.8z M362.7,2111.9
		c10.8,8.3,21.7,16.5,32.6,24.7c8.7,2.5,17.4,5.1,26.2,7.5c-11.1-8.9-22.3-17.7-33.4-26.7C379.6,2115.7,371.1,2113.8,362.7,2111.9z
		 M324.5,2082.2c11.1,8.8,22.3,17.6,33.5,26.2c8.6,2,17.3,3.9,26,5.7c-11.3-9.2-22.5-18.7-33.7-28.1
		C341.6,2084.8,333,2083.6,324.5,2082.2z M285.6,2051.3c11.6,9.4,23.3,18.6,35,27.9c8.7,1.4,17.4,2.7,26.2,4
		c-11.7-9.8-23.3-19.6-35-29.6C303,2052.8,294.3,2052.1,285.6,2051.3z M246.6,2019.4c11.8,9.8,23.8,19.5,35.7,29.2
		c8.7,0.8,17.6,1.6,26.4,2.3c-12-10.3-24-20.5-35.9-30.9C264.1,2019.8,255.3,2019.6,246.6,2019.4z M207.5,1986.5
		c12,10.2,24,20.4,36.1,30.4c8.8,0.2,17.6,0.4,26.4,0.6c-12.2-10.7-24.2-21.5-36.3-32.3C225,1985.7,216.3,1986.1,207.5,1986.5z
		 M168,1952.7c12.2,10.6,24.5,21.1,36.9,31.6c8.8-0.4,17.5-0.8,26.4-1.2c-12.5-11.1-24.8-22.4-37.1-33.6
		C185.4,1950.6,176.7,1951.6,168,1952.7z M128.1,1917.7c12.4,11,25,21.9,37.5,32.8c8.7-1,17.5-2.1,26.3-3.2
		c-12.6-11.6-25.3-23.1-37.8-34.7C145.4,1914.4,136.7,1916.1,128.1,1917.7z M87.9,1881.7c12.6,11.4,25.2,22.7,38,34.1
		c8.6-1.7,17.4-3.4,26.1-5.1c-12.8-12-25.6-24-38.2-36C105.1,1877,96.4,1879.4,87.9,1881.7z M47.5,1844.7
		c12.7,11.7,25.4,23.5,38.4,35.2c8.5-2.4,17.3-4.7,26-7c-13-12.4-25.9-24.8-38.7-37.2C64.5,1838.6,56,1841.6,47.5,1844.7z
		 M6.7,1806.6c12.8,12.1,25.8,24.2,38.8,36.3c8.5-3.1,17.1-6.1,25.8-9.1c-13.2-12.8-26.3-25.6-39.2-38.3
		C23.5,1799.2,15.1,1802.9,6.7,1806.6z M0,1544.5c230.8-100,557.8-97.9,1021.2,113.2c20.6,7.8,41.4,15.9,62.5,24.5
		c22.8,7.4,46,15.4,69.5,23.7c22.2,5.9,44.5,12.1,67.2,18.8c20.7,4.2,41.7,8.7,62.9,13.4c22,2.7,44.2,5.7,66.7,8.9
		c19.9,0.7,39.9,1.6,60.1,2.5c20-1.4,40.2-2.7,60.5-4c19.2-3.7,38.5-7.5,57.9-11.3c18.1-6.2,36.2-12.5,54.4-19
		c17.6-9.2,35.1-18.6,52.7-28.3c15.9-11.9,31.8-24.2,47.6-36.8c15.4-15.9,30.7-32.3,45.9-49.3c13.1-18.5,26.1-37.5,38.9-57.1
		c13-24.7,25.7-50.3,38.2-76.7c9.5-25,18.7-51,27.7-77.5c9.5-35,18.5-71.3,27.1-108.7c5.8-32.3,11.2-65.7,16.2-99.9
		c5-46.4,9.2-94.7,13.1-144.2c1.7-38.7,3.2-78.2,4.1-119.1v0l0.2-5.6c0-20.5,0.1-40.6-0.2-61.8v0l-0.5-79.2
		c-4.5-96.3-8.9-190.2-13.2-281.2c-6.8-145.3-13.3-283-19.3-413.7h2.4c6,130.7,12.5,268.3,19.3,413.6c3.4,72,6.9,145.8,10.4,221.9
		l-0.8-105.3c-1.4-189.3-2.7-365.8-3.4-530.1h2.4c0.7,164.3,2,340.7,3.4,530.1c0.4,53.9,0.8,108.8,1.2,164.7l0.6,11.8
		c0.6,13.7,0.9,26.5,1.4,39.9c2.3-57.4,4.5-113.6,6.7-168.7c8.2-208.6,15.8-400.8,23.7-577.9h2.4c-7.8,177.1-15.4,369.3-23.7,577.9
		c-2.6,65-5.2,131.5-7.9,199.6c0.8,19.6,1.6,39.3,2.1,58.3c9.1-95.2,17.8-187.2,26.3-276.1c19.2-202.5,36.9-388.8,54.2-559.8h2.4
		c-17.4,171-35,357.4-54.2,560c-8.9,94.4-18.2,192.3-28,293.8c0.6,22.8,1,45.1,1.4,67.3c25-152.6,48.2-296.8,70-433.1
		c28.2-175.6,54.2-338.1,79.5-487.9h2.4c-25.3,149.9-51.3,312.5-79.5,488.3c-22.5,140.3-46.4,289-72.2,446.2
		c0.4,23,0.8,46.1,0.9,68.4C1960.1,856.1,2009,650,2054,460.5c32.4-136.8,62.8-264.8,92.2-384.4h2.4c-29.4,119.8-59.8,248-92.3,385
		c-45.5,191.9-95.1,400.8-151.5,627.1c0.1,24,0,47.4-0.2,70.8c105.9-295.8,192.9-564.5,270.7-804.9c31.5-97.3,61.5-190,90.7-278h2.5
		c-29.2,88.2-59.3,181.1-90.9,278.7c-78.4,242.1-166.1,513-273,811.4c-0.2,23.6-0.3,47.2-0.8,70
		c178.7-355.5,313.2-680.2,431.1-964.8c27.9-67.4,54.9-132.5,81.3-195.3h2.6c-26.5,63.1-53.7,128.5-81.7,196.2
		c-118.4,285.8-253.6,612-433.3,969.2c-0.5,23.9-1.3,47.2-2.1,70.4c272.6-387.1,458.3-759.5,619.9-1083.4
		c26-52.1,51.3-103,76.3-152.4h2.6c-25.2,49.8-50.7,101-76.9,153.5c-162,324.8-348.2,698.3-622.1,1086.7
		c-0.8,23.2-1.5,46.5-2.6,68.8c382.6-380.8,617.1-795.4,822-1157.6c29.2-51.6,57.8-102.1,86.1-151.3h2.7
		c-28.6,49.6-57.3,100.5-86.8,152.5c-205.2,362.9-440.2,778.4-824.1,1159.9c-1.2,23.4-2.8,45.8-4.3,68.4l0.4-0.5l0.1-0.1l0.1-0.1
		c503.3-335.2,780.8-791.7,1026.2-1195.3c38.4-63.2,76-125,113.6-184.9h2.8c-37.8,60.3-75.7,122.6-114.4,186.2
		C2677.6,666,2400,1122.7,1896.3,1458.2c-0.8,0.8-1.5,1.6-2.3,2.3c-1.5,22.5-2.8,45.5-4.6,67c1.8-1.3,3.6-2.5,5.5-3.8l0.1-0.1l0.1,0
		c626.9-254.7,940.3-755.5,1221-1204.2c52.3-83.6,103.4-165.3,155.3-243.4h2.8c-52.1,78.4-103.5,160.6-156.1,244.6
		c-280.9,448.9-594.4,950.1-1222,1205.1c-2.3,1.6-4.6,3.2-6.9,4.8c-2,22.7-4.4,44.1-6.7,66c4.2-1.8,8.4-3.6,12.5-5.4l0.1-0.1l0.1,0
		C2648.7,1444.6,2992.3,893,3303,394c68.6-110.2,135.7-217.8,205.2-318h2.9C3441.3,176.5,3374,284.6,3305,395.3
		c-311,499.4-654.8,1051.3-1409.1,1198c-4.6,2-9.1,3.9-13.7,5.9c-2.2,21.4-4.3,43.1-6.8,63.5c6.6-1.4,13.2-2.8,19.9-4.3l0.1,0l0.1,0
		c881.5-16.1,1250.5-625.9,1586-1180c85.5-141.3,168.9-279,258-402.3h2.9c-89.4,123.6-173,261.8-258.8,403.5
		c-335.7,554.7-705.1,1165-1587.8,1181.2c-6.9,1.5-13.8,3-20.6,4.4c-2.7,21.1-5.7,41.3-8.6,61.6c9.7-0.3,19.3-0.6,29.1-0.9l0.1,0
		l0.1,0C2906.5,1857.7,3297.3,1181.7,3652.1,568c101.7-175.9,200.4-346.7,310-492h3c-109.9,145.5-208.9,316.7-310.9,493.1
		c-355.2,614.4-746.3,1291-1758.6,1159c-9.9,0.3-19.6,0.6-29.4,0.9c-3,20.1-6,40.1-9.2,59.3c12.9,1.6,25.8,3.2,38.8,4.9l0.1,0l0.1,0
		c1141.3,294,1550.6-456.4,1919.9-1133.5c116.5-213.6,229-419.9,359.3-583.9h3c-130.6,164.1-243.4,370.9-360.2,585
		c-369.7,677.8-779.4,1429-1922.5,1134.6c-13.1-1.7-25.9-3.3-38.9-4.9c-3.3,19.4-6.8,38.4-10.4,57c16.6,4.3,33.1,8.5,49.8,13.1
		l0.1,0l0,0C3169.2,2328.9,3594.1,1495.6,3973.4,752c129.7-254.3,254-498.1,405.1-675.9h3.1c-151.5,177.8-276.1,422.1-406.1,677
		c-379.7,744.5-805.1,1578.8-2080.2,1110c-16.7-4.5-33.1-8.7-49.6-13c-3.7,18.7-7.6,36.8-11.6,54.6c20.5,7.7,41.1,15.4,62,23.6
		l0.1,0c1406.6,652.4,1844.6-272.6,2229.6-1085.6C4267,544.4,4401.2,261,4573.5,76.1h3.2c-172.8,184.7-307.3,468.6-448.9,767.7
		c-385.5,814-824,1740.1-2232.7,1086.7c-20.8-8.1-41.3-15.8-61.7-23.5c-4,17.7-7.9,35.6-12.2,52.5c24.7,11.8,49.6,23.8,74.8,36.4
		l0,0C3096,2654,3633.7,2178.9,3995.5,1518.9c103.2-188.2,192.1-391.5,277.9-587.8c151.8-347.1,294.1-672.5,489.2-855.1h3.4
		c-195.7,182-338.3,508.1-490.5,856c-85.9,196.4-174.8,399.7-278,588c-362.4,661.1-900.9,1137-2102.5,477.9v0
		c-25.1-12.5-49.8-24.4-74.3-36.1c-4.5,17.2-9.3,33.3-14.1,49.7c29.4,16.7,59.3,33.9,89.5,51.8l0,0
		C3071.8,2796.6,3648,2459.8,4020.1,1863c159.4-255.7,281.4-559.2,396.9-846.7c159.7-397.3,307.1-764.2,524.4-933
		c3.2-2.5,6.4-4.9,9.7-7.3h3.9c-4.1,3-8.1,6-12.2,9.1c-216.7,168.4-364.1,535-523.6,932c-115.6,287.6-237.6,591.2-397.1,847.1
		c-372.7,597.9-949.8,935.4-2127.1,201.1c-30.1-17.8-59.7-34.9-89-51.5c-4.7,16.2-9.3,32.5-14.3,47.8
		c34.3,22.1,69.2,45.3,104.5,69.2l0,0c1185.2,819,1794.1,570.9,2179.7,12.6c206.1-298.5,348.5-685.7,481-1045.9
		C4695,722,4822.3,375.8,5000,189.5v3.4c-176.4,186.3-303.3,531.3-440.9,905.4c-132.5,360.3-275,747.7-481.3,1046.4
		c-386.3,559.4-996.1,808.1-2182.9-12c-35.2-23.8-69.9-46.9-104-68.9c-5.1,15.6-10.6,30.5-16,45.3c39.7,28.5,80.2,58.2,121.4,89.2
		c1210.7,909.9,1850.8,729.2,2250.9,196.4c247.9-330.2,403.9-795.6,546.2-1220.5c99.8-298,193-576,306.6-773.8v4.7
		c-112.5,197.3-205.2,473.7-304.3,769.8c-142.4,425.1-298.4,890.7-546.6,1221.2c-400.9,533.8-1042,715-2254.2-195.9
		c-41-30.8-81.3-60.4-120.8-88.7c-217.9,588.5-676,495.6-1128.9,196.4c-24.4-14.4-48.7-29.3-73-44.8c-22.2-12.6-44.3-25.7-66.4-39.2
		c-24-12.9-47.9-26.2-71.6-40.1c-22.3-11.4-44.6-23.2-66.6-35.4c-23.6-11.2-47.1-22.7-70.3-34.7c-22.4-9.7-44.6-19.8-66.6-30.2
		c-23.2-9-46-18.3-68.6-27.9c-22.8-7.6-45.3-15.5-67.4-23.6c-22.1-6.1-43.9-12.4-65.2-18.9c-9.9-2-19.7-4.1-29.4-6.2v-2.4l5.7,1.2
		l-5.7-1.8v-3.2c6.4,0.7,12.9,1.4,19.4,2c-6.5-2.7-13-5.4-19.4-8.1v-2.6c9.3,3.9,18.6,7.7,28,11.5c8,0.8,16.1,1.5,24.2,2.2
		c-9.8-4.7-19.4-9.5-29-14.3c-7.8,0-15.5,0.1-23.2,0.1v-2.3c6.1,0,12.3,0,18.5-0.1c-6.2-3.1-12.4-6.2-18.5-9.4v-2.7
		c7.9,4,15.9,8,23.9,12c8.4-0.1,17-0.2,25.6-0.3c-10.8-6.2-21.6-12.4-32.2-18.7L0,1972v-2.4l13.8-1.5c-4.6-2.7-9.2-5.5-13.8-8.2
		v-2.8c5.9,3.5,11.8,7,17.8,10.5c8.5-0.9,17.2-1.9,25.9-2.9c-11.5-7.5-23-15.1-34.3-22.7l-9.4,2v-2.4l6.7-1.4l-6.7-4.5v-2.9
		c3.3,2.2,6.6,4.5,9.9,6.7c8.5-1.8,17.1-3.6,25.8-5.4c-12-8.8-24-17.6-35.7-26.5v-3l0.4,0.3c8.4-2.6,17-5.2,25.6-7.8
		c-8.7-7.1-17.4-14.2-26-21.2v-3.1c9.5,7.8,19.1,15.7,28.8,23.5c8.5-2.5,17-5.1,25.7-7.6c-12.7-10.9-25.2-21.9-37.6-32.8
		c-5.7,2.1-11.3,4.3-16.8,6.5v-2.5c4.9-1.9,9.9-3.8,14.9-5.7c-5-4.4-9.9-8.8-14.9-13.1v-3.2c5.8,5.1,11.6,10.3,17.4,15.4
		c8.4-3.2,16.9-6.4,25.5-9.5c-13-12.1-25.9-24.1-38.7-36.2l-4.3,1.9v-2.6l2.5-1.1l-2.5-2.3v-3.3l4.9,4.6c8.4-3.7,16.8-7.5,25.5-11.1
		c-10.2-10-20.3-20.1-30.3-30.1v-3.4c10.8,10.8,21.8,21.7,32.8,32.5c255.1-106.6,607.3-166.4,1082.2-87.5
		c-9.5-4.7-18.8-9.3-28.2-13.8C598.1,1572.9,247.8,1629.9,0,1750v-2.7c246.2-119.1,593.2-176,1076.1-61c-8.4-4.1-16.8-8-25.1-11.9
		c-475-147.9-812.5-107-1051,10.9v-2.8c236.1-116.4,568.8-157.5,1035.3-15.5c-4.9-2.3-10.1-4.8-15-7.1
		c-461.9-174.6-789-153.1-1020.3-42.7v-3c224.5-106.8,538.7-130.4,978.3,27.3c-440.9-192.2-754.8-191-978.3-93.9V1544.5z"/>
</g>
</svg>
