<svg width="93" height="93" viewBox="0 0 93 93" fill="none" xmlns="http://www.w3.org/2000/svg">
<path fill-rule="evenodd" clip-rule="evenodd" d="M38.75 17.625C38.75 14.3113 41.4363 11.625 44.75 11.625H48.25C51.5637 11.625 54.25 14.3113 54.25 17.625V75.375C54.25 78.6887 51.5637 81.375 48.25 81.375H44.75C41.4363 81.375 38.75 78.6887 38.75 75.375V17.625ZM7.75 37C7.75 33.6863 10.4363 31 13.75 31H17.25C20.5637 31 23.25 33.6863 23.25 37V75.375C23.25 78.6887 20.5637 81.375 17.25 81.375H13.75C10.4363 81.375 7.75 78.6887 7.75 75.375V37ZM75.75 31C72.4363 31 69.75 33.6863 69.75 37V75.375C69.75 78.6887 72.4363 81.375 75.75 81.375H79.25C82.5637 81.375 85.25 78.6887 85.25 75.375V37C85.25 33.6863 82.5637 31 79.25 31H75.75Z" fill="#6DAB6C"/>
</svg>
